HIERARCHY
ROOT Hips
{
	OFFSET -3.958830 18.904000 13.208200
	CHANNELS 6 Xposition Yposition Zposition Zrotation Yrotation Xrotation 
	JOINT LHipJoint
	{
		OFFSET 0.000000 0.000000 0.000000
		CHANNELS 3 Zrotation Yrotation Xrotation
		JOINT LeftUpLeg
		{
			OFFSET 1.800000 -1.400000 0.085000
			CHANNELS 3 Zrotation Yrotation Xrotation
			JOINT LeftLeg
			{
				OFFSET 2.215000 -6.000000 0.000000
				CHANNELS 3 Zrotation Yrotation Xrotation
				JOINT LeftFoot
				{
					OFFSET 2.500000 -6.900000 0.000000
					CHANNELS 3 Zrotation Yrotation Xrotation
					JOINT LeftToeBase
					{
						OFFSET 0.200000 -0.500000 1.950000
						CHANNELS 3 Zrotation Yrotation Xrotation
						End Site
						{
							OFFSET 0.000000 0.000000 0.000000
						}
					}
				}
			}
		}
	}
	JOINT RHipJoint
	{
		OFFSET 0.000000 0.000000 0.000000
		CHANNELS 3 Zrotation Yrotation Xrotation
		JOINT RightUpLeg
		{
			OFFSET -1.800000 -1.400000 0.085000
			CHANNELS 3 Zrotation Yrotation Xrotation
			JOINT RightLeg
			{
				OFFSET -2.215000 -6.000000 0.000000
				CHANNELS 3 Zrotation Yrotation Xrotation
				JOINT RightFoot
				{
					OFFSET -2.500000 -6.900000 0.000000
					CHANNELS 3 Zrotation Yrotation Xrotation
					JOINT RightToeBase
					{
						OFFSET -0.200000 -0.500000 1.950000
						CHANNELS 3 Zrotation Yrotation Xrotation
						End Site
						{
							OFFSET 0.000000 0.000000 0.000000
						}
					}
				}
			}
		}
	}
	JOINT LowerBack
	{
		OFFSET 0.000000 0.000000 0.000000
		CHANNELS 3 Zrotation Yrotation Xrotation
		JOINT Spine
		{
			OFFSET -0.087000 1.940000 -0.288900
			CHANNELS 3 Zrotation Yrotation Xrotation
			JOINT Spine1
			{
				OFFSET 0.000000 1.950000 0.060000
				CHANNELS 3 Zrotation Yrotation Xrotation
				JOINT Neck
				{
					OFFSET 0.000000 0.000000 0.000000
					CHANNELS 3 Zrotation Yrotation Xrotation
					JOINT Neck1
					{
						OFFSET 0.000000 1.600000 0.340000
						CHANNELS 3 Zrotation Yrotation Xrotation
						JOINT Head
						{
							OFFSET 0.000000 1.667000 -0.240000
							CHANNELS 3 Zrotation Yrotation Xrotation
							End Site
							{
								OFFSET 0.000000 0.000000 0.000000
							}
						}
					}
				}
				JOINT LeftShoulder
				{
					OFFSET 0.000000 0.000000 0.000000
					CHANNELS 3 Zrotation Yrotation Xrotation
					JOINT LeftArm
					{
						OFFSET 2.700000 1.550000 -0.730000
						CHANNELS 3 Zrotation Yrotation Xrotation
						JOINT LeftForeArm
						{
							OFFSET 5.450000 0.000000 0.000000
							CHANNELS 3 Zrotation Yrotation Xrotation
							JOINT LeftHand
							{
								OFFSET 3.450000 0.000000 0.000000
								CHANNELS 3 Zrotation Yrotation Xrotation
								JOINT LeftHandIndex1
								{
									OFFSET 0.750000 0.000000 0.000000
									CHANNELS 3 Zrotation Yrotation Xrotation
									End Site
									{
										OFFSET 0.000000 0.000000 0.000000
									}
								}
							}
						}
					}
				}
				JOINT RightShoulder
				{
					OFFSET 0.000000 0.000000 0.000000
					CHANNELS 3 Zrotation Yrotation Xrotation
					JOINT RightArm
					{
						OFFSET -2.700000 1.550000 -0.730000
						CHANNELS 3 Zrotation Yrotation Xrotation
						JOINT RightForeArm
						{
							OFFSET -5.450000 0.000000 0.000000
							CHANNELS 3 Zrotation Yrotation Xrotation
							JOINT RightHand
							{
								OFFSET -3.450000 0.000000 0.000000
								CHANNELS 3 Zrotation Yrotation Xrotation
								JOINT RightHandIndex1
								{
									OFFSET -0.750000 0.000000 0.000000
									CHANNELS 3 Zrotation Yrotation Xrotation
									End Site
									{
										OFFSET 0.000000 0.000000 0.000000
									}
								}
							}
						}
					}
				}
			}
		}
	}
}
MOTION
Frames: 11
Frame Time: 0.016667
0.103950 16.602310 -3.504960 -3.921546 -4.381480 -6.256176 -14.724268 12.657699 4.047004 9.363869 -3.260981 -28.908863 -10.778774 12.167273 36.684095 1.174739 6.518131 2.072625 0.577970 0.459540 0.713220 18.476637 -11.567264 3.014865 -0.065706 4.031123 -12.832882 5.000293 -6.734168 31.645720 -0.797251 -4.397640 2.790760 -0.261250 -0.698560 0.240500 -4.413592 0.741665 -8.352218 32.588717 -5.129194 30.967947 -25.162702 8.876635 -8.262068 11.246763 4.964081 -14.036619 11.247731 -18.157742 51.039524 -4.059290 -11.512560 -16.940250 -23.108650 3.316968 1.446345 -47.017524 14.336347 -14.579720 -25.033923 -33.126335 5.093161 -2.537750 3.564675 0.366260 -0.596570 0.729630 0.193320 -2.743061 4.054069 13.873056 33.112759 -14.619164 -15.924920 -95.331152 44.983585 -47.971418 2.895421 -1.420697 0.546620 -0.387270 -0.675430 0.112930 
0.095190 16.588360 -3.505900 -4.212950 -4.411231 -6.378493 -14.779471 12.725918 4.080591 9.758750 -3.199748 -29.301525 -10.546145 12.293894 37.282430 1.173277 6.646388 2.027245 0.555680 0.421390 0.713560 18.428645 -11.452688 3.019917 0.191397 4.119949 -12.677446 5.320008 -6.876559 31.903349 -0.797489 -4.446918 2.778109 -0.276050 -0.704850 0.229620 -4.270080 0.454038 -8.389041 32.017295 -5.093975 31.874232 -24.269940 9.100149 -9.391470 11.107204 5.062675 -14.028621 11.715803 -18.303417 50.709943 -4.738590 -11.081110 -16.848730 -23.372156 4.080796 1.227142 -47.177618 14.948429 -14.563628 -25.810624 -33.274256 5.391822 -2.542037 3.548125 0.381700 -0.597300 0.716600 0.175210 -2.344045 3.529556 13.918309 34.163319 -14.825390 -15.797665 -99.314449 45.690833 -52.764557 2.878040 -1.367552 0.525140 -0.392580 -0.663640 0.092190 
0.074610 16.557260 -3.505470 -4.701326 -4.355237 -6.444296 -14.897796 12.845706 4.145063 10.348978 -3.112723 -30.222657 -9.946227 12.449543 38.423307 1.177015 6.860198 1.947633 0.522480 0.363830 0.716230 18.328696 -11.224760 3.029199 0.586787 4.338293 -12.579690 6.111168 -7.222021 32.435062 -0.805184 -4.566448 2.737190 -0.300480 -0.716400 0.230420 -3.969596 -0.088489 -8.458219 30.571188 -4.534328 33.421651 -22.171099 9.845962 -11.790630 10.825550 5.509003 -13.931953 13.215441 -19.047016 49.443436 -6.662790 -10.197200 -16.225620 -23.863979 5.952527 0.566774 -46.989955 15.769807 -13.992023 -27.828413 -32.727593 6.034797 -2.566551 3.532054 0.395270 -0.589120 0.700850 0.149940 -1.626345 2.044554 13.980533 36.122392 -15.402225 -15.276909 -106.652404 46.779305 -62.417694 2.882807 -1.325652 0.502080 -0.416780 -0.647370 0.063510 
0.043110 16.520610 -3.499980 -5.253431 -4.298222 -6.321013 -15.067788 12.990816 4.225145 11.015708 -2.981276 -31.490232 -9.179470 12.636074 39.797849 1.196176 7.114466 1.852743 0.478610 0.300220 0.717430 18.191877 -10.911750 3.034051 1.127622 4.622683 -12.587755 7.131273 -7.641432 32.955724 -0.815138 -4.697879 2.692012 -0.334070 -0.726280 0.242040 -3.547146 -0.812975 -8.540938 28.254026 -3.465739 35.167740 -19.111141 11.144062 -15.007981 10.328101 6.249205 -13.852108 15.462566 -20.243047 47.283582 -9.483640 -8.889980 -15.288370 -24.337343 8.599517 -0.331235 -46.667661 16.882171 -13.075331 -30.510961 -31.652825 6.841743 -2.606894 3.512601 0.399380 -0.570930 0.690050 0.123460 -0.646401 -0.093487 13.929239 38.518517 -16.255960 -14.571520 -115.985251 47.775660 -76.261231 2.946995 -1.380055 0.484680 -0.449270 -0.629840 0.038730 
0.007410 16.486520 -3.488150 -5.951040 -4.393546 -5.943589 -15.250240 13.135972 4.286038 11.733153 -2.775137 -32.803872 -8.269323 12.708178 40.942962 1.198888 7.319132 1.776329 0.440240 0.238440 0.732940 18.053856 -10.569411 3.043128 1.841844 4.966345 -12.743720 8.138132 -8.055273 33.493751 -0.828973 -4.824890 2.649410 -0.364180 -0.735890 0.255450 -3.103521 -1.583709 -8.612175 25.862618 -2.205223 36.511989 -15.791070 12.747362 -18.252420 9.736880 6.991160 -13.712715 17.724530 -21.527468 44.964590 -12.596030 -7.440120 -14.383760 -24.982315 11.548486 -1.382239 -46.148345 18.083816 -11.963757 -32.900593 -30.129174 7.483257 -2.645381 3.483524 0.405090 -0.549260 0.682880 0.098300 0.674952 -2.449092 13.662805 41.098467 -17.232872 -14.146547 -126.475818 48.682485 -93.787791 3.028353 -1.562860 0.464380 -0.475760 -0.616950 0.009620 
-0.031740 16.458320 -3.473460 -6.544428 -4.448366 -5.480274 -15.415851 13.248481 4.318558 12.242260 -2.621225 -33.934683 -7.300125 12.634139 41.850657 1.174659 7.450190 1.715776 0.420740 0.198880 0.764780 17.933732 -10.265931 3.052760 2.395327 5.317407 -13.046190 9.198757 -8.527630 34.040991 -0.855096 -4.967144 2.593667 -0.379240 -0.755570 0.273370 -2.707758 -2.248000 -8.660367 23.376158 -0.886692 37.234184 -12.452845 14.212234 -20.948366 9.101161 7.683414 -13.512480 19.973816 -22.758803 43.015551 -15.571910 -5.923620 -13.745950 -25.791270 14.195208 -2.365466 -45.560496 19.253221 -10.917168 -34.545057 -28.525814 7.827834 -2.675022 3.456905 0.418330 -0.529500 0.686310 0.071200 2.414164 -4.670313 13.157151 44.121639 -18.203538 -14.331600 -136.814554 50.293701 -113.992433 3.054612 -1.785733 0.448120 -0.500540 -0.607450 -0.026020 
-0.067780 16.434870 -3.457200 -7.091492 -4.471878 -4.954558 -15.544514 13.332803 4.331030 12.557034 -2.552716 -34.838045 -6.279434 12.394419 42.560312 1.147796 7.492233 1.678664 0.445620 0.209550 0.823090 17.843123 -10.019486 3.073927 2.862290 5.626593 -13.455538 10.220194 -8.993508 34.489275 -0.902104 -5.090047 2.535474 -0.372790 -0.795360 0.298520 -2.403800 -2.787073 -8.708559 21.256275 0.156110 37.159383 -9.208734 15.223790 -22.727327 8.439231 8.018132 -13.243962 21.308138 -23.564920 42.566993 -17.589290 -4.849680 -13.301170 -26.626643 16.073550 -3.022993 -45.637641 20.543148 -10.420167 -34.959378 -27.114964 7.688119 -2.684766 3.436107 0.436640 -0.526990 0.715420 0.059050 4.598560 -6.276297 12.327148 46.816935 -19.219937 -15.165024 -145.836497 53.440536 -134.334190 3.018928 -1.977552 0.454680 -0.529030 -0.624790 -0.054750 
-0.103170 16.410870 -3.442310 -7.475860 -4.375244 -4.432260 -15.628507 13.395216 4.321276 12.524638 -2.579625 -35.498896 -5.164423 11.965983 43.025617 1.116662 7.427436 1.675418 0.476150 0.244760 0.869000 17.783088 -9.855253 3.109100 3.251928 5.869801 -13.951810 10.985996 -9.374956 34.918699 -0.946471 -5.185173 2.488586 -0.355890 -0.833390 0.310420 -2.203815 -3.159967 -8.755372 19.567767 0.953353 36.460267 -6.228727 15.776473 -23.674002 7.762306 8.051023 -12.848601 21.470947 -23.874353 43.373810 -18.512290 -4.372860 -12.859660 -27.292813 17.229104 -3.388164 -46.331533 21.601206 -10.350891 -34.528046 -25.673228 7.150355 -2.700722 3.391845 0.447170 -0.532230 0.748210 0.051720 6.991012 -7.373268 11.292761 48.941367 -20.414447 -16.663529 -155.291923 57.795340 -154.994586 2.926007 -2.106078 0.468890 -0.543400 -0.644660 -0.069280 
-0.131570 16.384050 -3.424550 -7.597622 -4.046853 -3.759211 -15.669727 13.397362 4.316978 12.082519 -2.788589 -36.123937 -4.061355 11.432428 43.356972 1.083799 7.308152 1.696989 0.516990 0.290920 0.916520 17.751974 -9.785802 3.151846 3.326759 6.070486 -14.697056 11.675761 -9.717578 35.233999 -0.985096 -5.257869 2.450158 -0.331650 -0.867340 0.320730 -2.104569 -3.283486 -8.795828 18.230767 1.610035 34.875892 -3.622903 15.944804 -23.937808 7.177557 7.981083 -12.478052 21.140870 -24.177794 44.627431 -19.343010 -4.260440 -11.996820 -27.720091 17.805408 -3.520255 -47.435823 22.277992 -10.562141 -33.401898 -23.973747 6.241188 -2.723869 3.330346 0.453570 -0.538350 0.782300 0.054060 9.100890 -8.087004 10.334050 50.581971 -21.537917 -18.620862 -163.689928 63.033437 -171.289890 2.817193 -2.135716 0.486620 -0.548020 -0.670080 -0.077120 
-0.154670 16.359800 -3.406540 -7.564370 -3.545025 -3.106347 -15.669126 13.352950 4.305110 11.414933 -3.089581 -36.530108 -3.049606 10.835846 43.450601 1.051356 7.129035 1.741607 0.558580 0.340470 0.959390 17.749878 -9.811224 3.199246 3.287684 6.180600 -15.462562 12.090027 -9.958741 35.516066 -1.013597 -5.309147 2.421777 -0.305540 -0.901500 0.323660 -2.103694 -3.168401 -8.813482 17.303364 2.027861 32.901098 -1.792242 15.701996 -23.749376 6.704038 7.913993 -12.339236 20.938619 -24.607488 45.922460 -20.137920 -4.271460 -10.859230 -27.754626 17.793181 -3.418565 -48.696118 22.373794 -10.875328 -31.841729 -21.953904 5.140285 -2.745879 3.262261 0.454620 -0.547280 0.813320 0.060050 10.523361 -8.371456 9.743440 52.232096 -22.414755 -20.805451 -171.116930 68.490143 177.000163 2.723181 -2.091910 0.505230 -0.550610 -0.699130 -0.079950 
-0.166880 16.346260 -3.390190 -7.436301 -2.989315 -2.674263 -15.642816 13.315082 4.278679 10.662043 -3.415452 -36.521413 -2.288040 10.260297 43.252269 1.003918 6.935669 1.799535 0.579490 0.363910 0.984630 17.762567 -9.894599 3.232980 3.188965 6.124827 -15.941642 12.234820 -10.086314 35.596771 -1.020622 -5.326061 2.411013 -0.285790 -0.916670 0.318240 -2.160051 -2.970279 -8.807155 16.918245 2.200979 31.041078 -0.816696 15.213054 -23.297700 6.538698 7.851696 -12.247088 20.732875 -25.001824 46.954915 -21.068710 -4.367590 -9.719240 -27.716451 17.641550 -3.384129 -49.837566 22.130908 -11.160888 -30.152231 -20.177797 4.158193 -2.779857 3.188397 0.454520 -0.547510 0.824010 0.059860 11.141338 -8.635237 9.461234 53.407472 -23.037519 -22.555281 -178.592954 72.732888 167.569193 2.646490 -1.992492 0.507370 -0.538530 -0.707860 -0.085920 
